<?xml version="1.0" encoding="utf-8"?>
<!-- Generator: Adobe Illustrator 22.1.0, SVG Export Plug-In . SVG Version: 6.00 Build 0)  -->
<svg version="1.1" id="Layer_1" xmlns="http://www.w3.org/2000/svg" xmlns:xlink="http://www.w3.org/1999/xlink" x="0px" y="0px"
	 viewBox="0 0 266.8 64.3" style="enable-background:new 0 0 266.8 64.3;" xml:space="preserve">
<style type="text/css">
	.st0{fill:#FFFFFF;}
</style>
<g>
	<path class="st0" d="M14.6,30.6L14.6,30.6c0.4,0.6,0.6,1.3,0.6,2c0,1.9-1.8,3.6-4.3,3.6h-0.2c-0.6,0-1.2-0.1-1.7-0.3v0.2l0.1,0.2
		l0.1,0.3l0.1,0.2L9.4,37l0.1,0.2l0.1,0.2l0.1,0.2l0.1,0.2L9.9,38l0.1,0.2l0.2,0.2l0.2,0.1l0.2,0.2l0.2,0.1L11,39l0.2,0.1l0.3,0.1
		l0.1,0.1c0.1,0,0.2,0.1,0.3,0.1H12c0.6,0.2,1.2,0.3,1.8,0.4l0,0c-0.4,0.4-0.7,0.7-1,1.2l0,0c-0.1,0.1-0.2,0.3-0.2,0.4v0.1
		c-0.1,0.1-0.1,0.3-0.2,0.4l-0.1,0.2c0,0.1-0.1,0.2-0.1,0.3l-0.1,0.3L12,42.9c0,0.2,0,0.3-0.1,0.5c-0.1,2.7,2,4.7,4.7,4.7
		c0.1,0,0.3,0,0.4,0c-1.4-2.2-0.9-5.2,1.2-7.2c0.9-0.8,1.9-1.3,2.9-1.6l0,0L21,39.2L20.9,39l-0.1-0.1l-0.2-0.1l-0.1-0.1
		c-0.1,0-0.2-0.1-0.3-0.1l-0.1-0.1c-0.1,0-0.2-0.1-0.3-0.1h-0.1c-0.1,0-0.2-0.1-0.3-0.1h-0.1c-0.1,0-0.2,0-0.4-0.1h-0.1
		c-0.1,0-0.3,0-0.4,0c0.2-0.2,0.4-0.4,0.6-0.7l0,0c0.1-0.1,0.2-0.2,0.2-0.3l0,0c0.1-0.1,0.1-0.2,0.2-0.3v-0.1c0-0.1,0.1-0.2,0.1-0.3
		v-0.1c0-0.1,0.1-0.2,0.1-0.3v-0.2v-0.2c0-0.1,0-0.3,0-0.4C19.7,32.6,17.6,30.6,14.6,30.6L14.6,30.6z"/>
	<path class="st0" d="M8.1,44.6H7.9c-1.3,0.1-2.5,1.1-2.5,2.2c0,1,0.9,1.8,2,1.8c0.1,0,0.2,0,0.3,0c1.3-0.1,2.4-1.1,2.4-2.2
		C10.1,45.4,9.3,44.6,8.1,44.6"/>
	<path class="st0" d="M13.3,5.4c-0.2,0-0.4,0.2-0.3,0.4c0,0.2,0.2,0.5,0.4,0.5l0,0c0.2,0,0.4-0.2,0.3-0.4
		C13.8,5.7,13.6,5.5,13.3,5.4L13.3,5.4"/>
	<path class="st0" d="M4.8,35.7L4.8,35.7c-1.8,0-3.2,1.2-3.2,2.5c0,1.3,1.3,2.2,2.8,2.2h0.2c1.7-0.1,3-1.2,3-2.5
		C7.6,36.7,6.4,35.7,4.8,35.7"/>
	<path class="st0" d="M32.7,54.6c-0.9,0.9-2.1,1.4-3.4,1.4l0,0c-0.5,0-1-0.1-1.4-0.2l-0.1,0.1l0,0c-0.1,0.1-0.1,0.2-0.1,0.3l0,0
		c0,0.1-0.1,0.2-0.1,0.3v0.1c0,0.1-0.1,0.2-0.1,0.3V57c0,0.1,0,0.2-0.1,0.3v0.1c0,0.1,0,0.3,0,0.4c-0.1,2.4,1.4,4.5,3.3,4.5l0,0
		c2,0,3.5-2.1,3.5-4.5c0-0.2,0-0.5-0.1-0.7V57c0-0.2-0.1-0.4-0.1-0.6v-0.1c-0.1-0.2-0.1-0.4-0.2-0.6v-0.1c-0.1-0.2-0.2-0.4-0.3-0.5
		l0,0c-0.1-0.2-0.3-0.3-0.4-0.5l0,0L32.7,54.6"/>
	<path class="st0" d="M17.7,48.6c-1.3,2.2-1,5,0.8,6.6c0.7,0.6,1.6,0.9,2.5,0.9c1.4,0,2.9-0.8,4-2.2c0.2,0.2,0.5,0.3,0.8,0.5
		c-1.1-1.2-1.7-2.9-1.6-4.7l0,0c-0.8,0.5-1.8,0.7-2.7,0.7c-1.3,0-2.6-0.5-3.6-1.5L17.7,48.6"/>
	<path class="st0" d="M29.6,37.9c-1,0-2,0.5-2.6,1.5c-0.3,0.6-0.5,1.2-0.4,1.8c0.6,0.9,0.9,2,0.9,3.1c0.7-0.4,1.4-0.6,2.2-0.6h0.1
		c1.9,0,3.6,1.2,4.5,3.1c-0.1-0.7-0.3-1.4-0.7-2.1c-1.3-0.4-2.2-1.6-2.2-3.1c0-0.9,0.3-1.6,0.9-2.2c-0.2-0.5-0.6-1-1.1-1.3
		C30.6,38,30.1,37.9,29.6,37.9"/>
	<path class="st0" d="M56.9,18.4c-0.1,0-0.2,0-0.3,0c-1.7,0.2-3.1,1.5-3.2,2.9c0,0.5,0.1,1,0.4,1.3l0.2-0.1c0.5-0.2,1-0.3,1.5-0.3
		c0.9,0,1.8,0.3,2.4,1c1-0.5,1.7-1.4,1.8-2.5C59.7,19.4,58.5,18.4,56.9,18.4"/>
	<path class="st0" d="M7.7,16.1c-1,0-1.8,0.7-1.7,1.6c0,1,1,1.9,2.2,2h0.2c1,0,1.7-0.7,1.7-1.6c-0.1-1-1-1.9-2.1-2H7.7"/>
	<path class="st0" d="M24.3,29.7c-1.5,0.2-2.6,1.4-2.6,2.9c0,0.5,0.1,1,0.4,1.4c0.2-1.1,1.1-2,2.2-2.3c0.3-0.1,0.5-0.1,0.8-0.1
		c1.1,0,2.2,0.6,2.7,1.6c0-0.2,0.1-0.4,0.1-0.6c0-1-0.5-1.9-1.3-2.4c-0.1,0-0.3,0-0.4,0c-0.5,0-1-0.1-1.5-0.4L24.3,29.7"/>
	<path class="st0" d="M45.4,11.3h-0.2c-2.4,0.1-4.4,2.4-4.6,4.9c0,0.2,0,0.5,0,0.7V17c0,0.2,0.1,0.4,0.1,0.6v0.1
		c0.1,0.2,0.1,0.4,0.2,0.6v0.1c0.1,0.2,0.2,0.4,0.3,0.5l0,0c0.1,0.2,0.3,0.3,0.4,0.5l0.1,0.1c0.2,0.1,0.3,0.3,0.5,0.4h0.1
		c0.2,0.1,0.4,0.2,0.6,0.3l0,0c0.2,0.1,0.4,0.1,0.6,0.2l0,0c-0.2,0.1-0.3,0.3-0.5,0.4l0,0c-0.2,0.1-0.3,0.3-0.4,0.4l0,0
		c-0.3,0.3-0.5,0.7-0.7,1l0,0l0,0.3c-0.2-0.4-0.6-0.8-1-1c-0.4-0.3-0.9-0.4-1.4-0.4c-0.8,0-1.6,0.3-2.2,0.9c0,0.2,0,0.3,0,0.5
		c0,0.9-0.4,1.8-1.1,2.3c0.1,0.9,0.6,1.7,1.4,2.2c0.4,0.3,0.9,0.4,1.4,0.4l0,0c0.3-0.9,1.1-1.7,2.2-2c0.3-0.1,0.6-0.1,0.9-0.1
		c1.3,0,2.6,0.8,2.9,2.2c0.2,0.8,0.1,1.5-0.3,2.2c0.2,0,0.3,0.1,0.5,0.1l0,0l0,0c-0.2,0.3-0.5,0.6-0.6,0.9l-0.1-0.1l-0.1,0.2
		L44.3,31l-0.1,0.2l-0.1,0.2v0.2c0,0.1,0,0.2,0,0.3v0.2c0,0.1,0,0.3,0,0.5c0,0.7,0.2,1.4,0.5,2c0.6,0.4,1,0.9,1.2,1.5
		c0.5,0.5,1.2,0.9,2,1.1c0.9-0.4,2-0.7,3.1-0.7h0.2c0.6,0,1.2,0.1,1.8,0.3c0.5-0.3,1-0.7,1.4-1.1l0.1-0.1c0.1-0.1,0.3-0.3,0.4-0.5
		V35c0.1-0.2,0.2-0.4,0.3-0.6l0,0c0.1-0.2,0.2-0.4,0.2-0.5l0.1-0.2c0-0.1,0.1-0.3,0.1-0.4v-0.2c0-0.2,0.1-0.4,0.1-0.6
		c0-0.2,0-0.3,0-0.5v-0.2c0-0.1,0-0.2-0.1-0.3v-0.2c0-0.1-0.1-0.2-0.1-0.3l-0.1-0.2l-0.2-0.2L55,30.4l-0.1-0.2L54.8,30l-0.2-0.2
		c-0.1-0.1-0.2-0.3-0.3-0.4l-0.1-0.1L54,29.1L53.9,29c-0.1-0.1-0.2-0.1-0.3-0.2l-0.1-0.1c-0.1-0.1-0.2-0.1-0.3-0.2l-0.1-0.1
		c-0.6-0.4-1.4-0.7-2.2-0.8l0.1-0.1c0.1-0.1,0.2-0.2,0.2-0.3l0.1-0.2l0.2-0.2l0.1-0.2l0.1-0.2l0.1-0.2v-0.1
		c-0.3-0.8-0.1-1.6,0.5-2.3v-0.1v-0.2c0-0.1,0-0.2,0-0.3V23c0-0.1,0-0.2-0.1-0.3l-0.1-0.2c0-0.1-0.1-0.2-0.1-0.3L51.9,22v-0.3
		l-0.1-0.2l-0.1-0.2l-0.1-0.2l-0.2-0.2l-0.2-0.2L51,20.5l-0.2-0.2l-0.2-0.2L50.4,20l-0.2-0.1L50,19.8l-0.2-0.1l-0.3-0.1l-0.2-0.1
		l-0.2-0.1l-0.3-0.1l-0.2-0.1c-0.1,0-0.2,0-0.3,0h-0.2c-0.1,0-0.2,0-0.3,0h-0.2c0.1-0.1,0.2-0.2,0.3-0.3l0,0
		c0.1-0.1,0.2-0.2,0.3-0.3l0,0c0.1-0.1,0.2-0.2,0.2-0.4v-0.1c0.1-0.1,0.1-0.2,0.2-0.3v-0.1c0.1-0.1,0.1-0.2,0.2-0.3v-0.1
		c-0.6,0.4-1.4,0.6-2.1,0.6c-0.6,0-1.2-0.2-1.7-0.5c-1.4-1-1.6-3.2-0.3-4.9c0.3-0.4,0.7-0.8,1-1C45.7,11.4,45.5,11.3,45.4,11.3"/>
	<path class="st0" d="M41.1,33.7c-0.5,0-0.9,0.3-1,0.8c0,0.2,0,0.4,0,0.5c0.4-0.5,1-0.9,1.6-1C41.6,33.9,41.4,33.8,41.1,33.7
		L41.1,33.7"/>
	<path class="st0" d="M0.8,28.5c-0.4,0-0.8,0.3-0.8,0.6s0.4,0.6,0.8,0.6l0,0c0.4,0,0.8-0.3,0.8-0.6C1.6,28.8,1.3,28.5,0.8,28.5
		L0.8,28.5"/>
	<path class="st0" d="M16.7,11.9c-0.3,0-0.6,0-0.9,0.1c0,0.4-0.1,0.7-0.3,1c-0.2,0.2-0.6,0.4-0.9,0.4c-0.2,0-0.3,0-0.5-0.1
		c-0.4,0.6-0.6,1.4-0.6,2.2c0,0.2,0.1,0.4,0.1,0.7v0.1c0.1,0.2,0.1,0.4,0.2,0.6V17c0.1,0.2,0.2,0.4,0.3,0.6v0.1
		c0.1,0.2,0.3,0.3,0.4,0.5l0,0c0.6,0.7,1.5,1.2,2.4,1.4c-0.4,0.2-0.8,0.5-1.1,0.8l0.1-0.1c-0.1,0.1-0.2,0.2-0.3,0.3
		c1.4,1.1,2,2.9,1.3,4.3c-0.6,1.2-1.9,2-3.4,2c-0.6,0-1.3-0.1-1.9-0.4c-1.5-0.6-2.5-1.8-2.7-3.1c-1.2,0.6-2.1,1.8-2,3.1
		c0,1.2,0.7,2.2,1.7,3c0.7-0.3,1.5-0.5,2.3-0.5h0.2c1.2,0,2.2,0.4,3,1.1c0.2-0.1,0.3-0.2,0.4-0.3l0,0c0.2-0.1,0.3-0.2,0.5-0.4l0,0
		c0.1-0.1,0.3-0.3,0.4-0.4l0,0c0.2-0.3,0.4-0.7,0.5-1.1c0.6,0.7,1.4,1.3,2.2,1.7h0.1c0.2,0.1,0.3,0.2,0.5,0.2l0.2,0.1
		c0.2,0.1,0.3,0.1,0.5,0.1l0.2,0.1c0.2,0,0.3,0.1,0.5,0.1h0.2c0.2,0,0.4,0,0.7,0h-0.1c1.1,0,2.1-0.3,3-0.8c-1-0.9-1.2-2.4-0.6-3.6
		c0.5-0.9,1.5-1.5,2.5-1.5c0.5,0,1.1,0.1,1.6,0.4c1.4,0.8,1.9,2.5,1.2,3.9c0.4-0.1,0.7-0.4,1-0.6c1.1-1.1,1.1-3-0.1-4.3
		c-0.6-0.6-1.4-0.9-2.2-0.9c-0.5,0-0.9,0.1-1.4,0.3c-0.8-2.4-3-4.3-5.8-4.5h-0.2h-0.1h-0.1l0,0l0,0c0.2-0.2,0.4-0.5,0.6-0.8l0,0
		c0-0.1,0.1-0.2,0.1-0.3l0,0c0-0.1,0.1-0.2,0.1-0.3l0,0c0-0.1,0-0.2,0.1-0.3v-0.1c0-0.1,0-0.2,0-0.3v-0.1c0-0.1,0-0.3,0-0.4
		c-0.1-2.1-1.9-4-4-4.2L16.7,11.9"/>
	<path class="st0" d="M59.9,26.8h-0.2c-1.9,0.1-3.4,1.4-3.4,2.8c0,1.5,1.4,2.6,3.4,2.6l0,0c1.9,0,3.7-1.3,3.7-2.8
		C63.3,28,61.8,26.8,59.9,26.8"/>
	<path class="st0" d="M45.1,39.8c-0.3,0-0.6,0.1-1,0.2c-0.1,0.4-0.4,0.8-0.7,1.2c-0.5,0.5-1.2,0.8-1.9,0.8c-1.2,2-0.9,4.9,1.1,7.1
		c0.4,0.5,0.9,0.9,1.4,1.2c-0.1,0.3-0.1,0.7-0.1,1.1c0.2,2.1,1.8,3.9,3.8,4.1h0.2c1.8,0,3.2-1.6,3-3.6c-0.1-0.7-0.3-1.3-0.6-1.8
		c0.1-0.1,0.3-0.2,0.4-0.3c0.2-0.2,0.4-0.4,0.5-0.6c-3.6-0.6-6.4-3.6-6.5-6.8C44.7,41.4,44.8,40.6,45.1,39.8"/>
	<path class="st0" d="M42.8,3.6L42.8,3.6c-1.2,0-2.3,1.3-2.3,2.8c-0.1,1.4,0.7,2.5,1.8,2.5h0.1c1.1,0,2.2-1.2,2.3-2.6
		C44.8,4.8,43.9,3.6,42.8,3.6"/>
	<path class="st0" d="M54.1,10.9L54.1,10.9c-1,0.1-1.9,0.9-2,1.9c-0.1,0.9,0.5,1.5,1.4,1.5h0.2c1-0.1,1.8-0.9,1.9-1.8
		C55.6,11.6,54.9,10.9,54.1,10.9"/>
	<path class="st0" d="M56.7,47.7c-0.6,0.5-1.4,0.9-2.2,1.2c0,0.2-0.1,0.3,0,0.5c0.1,1.1,1.1,2,2.2,2.1h0.2c1,0,1.8-0.7,1.8-1.7
		S57.8,47.9,56.7,47.7"/>
	<path class="st0" d="M38.7,50.2c-2,0-3.6,1.8-3.5,4.4c0,1.4,0.6,2.7,1.4,3.6c0.4-1.4,1.4-2.4,2.6-2.5h0.3c1.1,0,2.2,0.7,2.9,1.9
		c0.4-0.8,0.6-1.7,0.5-2.7c-0.2-2.5-2.1-4.5-4.1-4.6L38.7,50.2"/>
	<polygon class="st0" points="55.5,38 55.5,38 55.5,37.9 	"/>
	<path class="st0" d="M22.2,56.7L22.2,56.7c-0.2,0-0.3,0-0.4,0.1c0.1,0,0.2,0.1,0.3,0.1c0.7,0.4,0.9,1.5,0.4,2.4
		c-0.3,0.6-0.9,1-1.4,1c-0.2,0-0.4-0.1-0.6-0.2c-0.3-0.2-0.5-0.6-0.6-1v0.2c-0.1,0.5,0,1,0.2,1.5c0.1-0.1,0.2-0.1,0.3-0.1l0.2,0.1
		c0.2,0.2,0.3,0.5,0.1,0.8c0.3,0.2,0.6,0.3,1,0.3l0,0c1.2,0,2.2-1.3,2.3-2.7C24.1,57.7,23.3,56.7,22.2,56.7"/>
	<path class="st0" d="M63.4,37.3c-0.9,0-1.6,0.5-1.6,1.2c0,0.7,0.7,1.3,1.7,1.4h0.1c0.9,0,1.6-0.5,1.6-1.2
		C65.2,37.9,64.4,37.3,63.4,37.3L63.4,37.3"/>
	<path class="st0" d="M24.4,1.7c-0.3,0-0.5,0.3-0.5,0.7c0,0.4,0.3,0.7,0.6,0.7l0,0c0.3,0,0.5-0.3,0.5-0.7S24.7,1.7,24.4,1.7
		L24.4,1.7z"/>
	<path class="st0" d="M54.5,37.4c0.3,0.2,0.6,0.3,0.9,0.5c-0.1-0.1-0.2-0.1-0.3-0.2l0,0c-0.1-0.1-0.2-0.1-0.3-0.2l0,0L54.5,37.4"/>
	<path class="st0" d="M36.7,38.9c-0.2,0-0.5,0-0.7,0.1c-0.1,0-0.2,0.1-0.3,0.1c0.9,0.5,1.5,1.5,1.5,2.7c0,1.3-0.7,2.5-1.8,2.9
		c0.5,0.3,1,0.4,1.5,0.4c0.2,0,0.5,0,0.7-0.1c1.5-0.4,2.4-1.9,2.1-3.4c-0.3-0.2-0.6-0.4-0.8-0.6c-0.5-0.5-0.8-1.2-0.9-1.8
		C37.7,39,37.2,38.9,36.7,38.9"/>
	<path class="st0" d="M39.7,30.2L39.7,30.2c0.1,0.2,0.2,0.2,0.3,0.3C39.9,30.4,39.8,30.3,39.7,30.2"/>
	<path class="st0" d="M29.5,12.4v0.2c0,2.5-1.5,4.4-3.6,4.4h-0.1c-2-0.1-3.9-1.9-4.2-4.2v0.1c0.2,2.6,2.1,4.6,4.3,4.6H26
		c2.1,0,3.7-1.8,3.6-4.4C29.6,12.9,29.5,12.6,29.5,12.4"/>
	<path class="st0" d="M33.7,5.5L33.7,5.5c-2.1,0-3.8,2.2-3.7,4.7s1.7,4.3,3.6,4.3l0,0c1.9,0,3.6-1.9,3.7-4.3
		C37.4,7.7,35.8,5.5,33.7,5.5"/>
	<path class="st0" d="M45.1,39.8c1-0.1,2.1,0.1,3.1,0.5v-0.2V40c0-0.1,0-0.2,0-0.3v-0.1c0-0.1,0.1-0.2,0.1-0.3v-0.1
		c0-0.1,0.1-0.2,0.1-0.3l0,0c0.2-0.4,0.5-0.7,0.8-1c0.1-0.1,0.2-0.2,0.4-0.3l0,0h-0.3c-0.7,0-1.3-0.2-1.9-0.4
		C46.5,37.8,45.6,38.7,45.1,39.8"/>
	<path class="st0" d="M52.6,36.9c0.7,0,1.3,0.2,1.9,0.5c-0.5-0.3-1.1-0.5-1.7-0.6L52.6,36.9L52.6,36.9z"/>
	<path class="st0" d="M55.5,37.9L55.5,37.9L55.5,37.9z"/>
	<path class="st0" d="M58.8,43.2c-0.1-2.1-1.4-4-3.2-5.3l0,0c0.1,0.1,0.2,0.2,0.3,0.2l0.1,0.1l0.2,0.2l0.1,0.1l0.2,0.2l0.1,0.1
		l0.2,0.2l0.1,0.1l0.1,0.2l0.1,0.2l0.1,0.2l0.1,0.2l0.1,0.2c0,0.1,0,0.2,0.1,0.3v0.1c0,0.1,0,0.3,0,0.4c0.1,2.2-2.1,3.9-4.5,3.7
		c-0.2,0-0.5-0.1-0.7-0.1c0.4,1.6,0.1,3.2-0.8,4.4c0.2,0,0.3,0.1,0.5,0.1c1,0.1,1.9,0,2.8-0.3c0.2-0.8,0.9-1.3,1.9-1.2h0.2
		C58,46.6,58.8,45.1,58.8,43.2"/>
	<path class="st0" d="M54.5,48.9c0.8-0.3,1.5-0.6,2.2-1.2h-0.2C55.5,47.6,54.7,48.1,54.5,48.9"/>
	<path class="st0" d="M10.4,53.6c-0.6,0.1-1.2,0.6-1.2,1.2c-0.1,0.6,0.4,1.1,1,1c0.6,0,1.2-0.6,1.2-1.2C11.5,54,11.1,53.6,10.4,53.6
		"/>
	<path class="st0" d="M21.5,12.3c0,0.1,0,0.3,0,0.4c-0.1-2.5,1.5-4.6,3.8-4.6c2.1,0.1,3.8,2,4.2,4.3c-0.1-2.5-2-4.8-4.2-4.8
		C23,7.5,21.3,9.8,21.5,12.3"/>
	<path class="st0" d="M57.7,14.9c0.5-0.4,0.6-1,0.2-1.4s-1-0.4-1.5,0s-0.6,1-0.3,1.4C56.5,15.3,57.2,15.3,57.7,14.9"/>
	<path class="st0" d="M9.1,35.7c0-0.2,0-0.3,0-0.5c0-2.6,2.6-4.7,5.5-4.7c-0.2-0.2-0.3-0.4-0.5-0.5l-0.2,0.1h-0.1
		c-0.2,0.1-0.4,0.2-0.6,0.2h-0.1c-0.2,0.1-0.4,0.1-0.6,0.1h-0.1c-0.2,0-0.5,0-0.7,0c-1.2,0-2.3-0.4-3.1-1c-1.2,0.6-2.1,1.8-2.1,3.1
		c0,1.5,1.1,2.8,2.7,3.3v-0.1H9.1"/>
	<path class="st0" d="M31.6,0h-0.2c-0.8,0.1-1.4,1.1-1.3,2.2c0.1,1,0.7,1.7,1.5,1.7h0.1c0.8-0.1,1.4-1,1.3-2.1C33,0.8,32.3,0,31.6,0
		"/>
	<path class="st0" d="M52.4,24.7v0.2c0,0.1,0,0.2-0.1,0.3l-0.1,0.2c0,0.1-0.1,0.2-0.1,0.3L52,25.9l-0.1,0.2l0.1,0.2
		c0.6,1.4,2.4,2,4.2,1.4c1.8-0.6,2.8-2.3,2.1-3.7c-0.1-0.2-0.3-0.5-0.4-0.6c-0.5,0.2-1,0.4-1.6,0.4c-1.1,0.1-2-0.3-2.5-1
		c-0.6,0.3-1,0.6-1.4,1.1c0,0.1,0,0.3,0,0.4C52.4,24.4,52.4,24.5,52.4,24.7"/>
	<path class="st0" d="M56.4,23.7c0.6,0,1.1-0.2,1.6-0.4c-0.9-0.9-2.5-1.2-3.9-0.7l-0.2,0.1C54.3,23.4,55.2,23.8,56.4,23.7"/>
	<path class="st0" d="M15.8,12c0-0.4-0.2-0.9-0.5-1.3c-0.6-0.7-1.6-0.7-2.1-0.2c-0.5,0.6-0.4,1.6,0.2,2.2c0.2,0.2,0.5,0.4,0.7,0.5
		C14.4,12.6,15,12.2,15.8,12"/>
	<path class="st0" d="M21.8,56.7c-0.6-0.2-1.3,0.2-1.7,1c-0.2,0.4-0.3,0.9-0.2,1.3C20.1,57.9,20.9,56.9,21.8,56.7"/>
	<path class="st0" d="M11.4,23c0.3,0,0.5,0.1,0.8,0.1h0.1c0.3,0.1,0.5,0.1,0.7,0.2l0,0c0.2,0.1,0.5,0.2,0.7,0.3l0,0
		c0.2,0.1,0.4,0.3,0.6,0.4c0-0.2,0-0.5,0-0.7v-0.1c0-0.2,0.1-0.4,0.1-0.6v-0.1c0.1-0.5,0.3-0.9,0.5-1.3c0.1-0.2,0.2-0.4,0.4-0.5
		l0.1-0.1l0.1-0.1c-0.3-0.2-0.6-0.4-1-0.6c-2.1-1-4.6-0.4-5.5,1.5c-0.3,0.6-0.4,1.3-0.3,2C9.6,23.1,10.5,22.9,11.4,23"/>
	<path class="st0" d="M42.4,57.5c-0.6,1.2-1.8,2-3.1,2c-1,0-2-0.5-2.7-1.3c-0.2,0.6-0.2,1.3-0.1,2c0.3,2.4,2.1,4.4,4,4.1
		s3.1-2.6,2.7-4.9C43,58.7,42.7,58.1,42.4,57.5"/>
	<path class="st0" d="M21.6,39.6l0.2,0.2l0.1,0.2l0.1,0.2l0.1,0.2l0.1,0.2l0.1,0.2l0.1,0.2l0.1,0.2l0.1,0.2l0.1,0.3v0.2
		c0,0.1,0,0.2,0,0.3v0.2c0,0.2,0,0.3,0,0.5c-0.1,1.2-0.6,2.3-1.3,3.3c0.5-0.1,1-0.1,1.5,0c0.7-1.8,2.2-3.3,3.9-3.9
		c-0.1-0.3-0.1-0.5-0.1-0.8c-0.2-0.2-0.3-0.5-0.5-0.7c-1.2-1.2-3-1.7-4.7-1.3L21.6,39.6L21.6,39.6"/>
	<path class="st0" d="M34.2,48.7v0.2c0,0.2-0.1,0.4-0.1,0.6v0.2c-0.1,0.5-0.3,1-0.5,1.5v0.1c-0.1,0.2-0.2,0.4-0.4,0.7v0.1
		c-0.5,0.7-1,1.3-1.7,1.8l0,0c0.2,0,0.4,0.1,0.5,0.2l0,0c0.2,0.1,0.3,0.2,0.5,0.3l0,0c0.1,0.1,0.2,0.2,0.3,0.2
		c1.3-1.2,2.1-3.1,2.1-5.1c0-1-0.2-1.9-0.6-2.7c0.1,0.3,0.1,0.7,0.1,1C34.3,48.1,34.2,48.4,34.2,48.7"/>
	<path class="st0" d="M18.2,47.9C17.9,48,17.6,48,17.3,48l0,0c0.1,0.2,0.3,0.4,0.4,0.6c0.1-0.2,0.2-0.4,0.4-0.5L18.2,47.9"/>
	<path class="st0" d="M28,55.6c0.1-0.2,0.3-0.4,0.4-0.6l0,0c-0.1,0-0.2,0-0.3,0c-0.9,0-1.7-0.2-2.4-0.5c0.6,0.6,1.3,1.1,2.1,1.4
		L28,55.6"/>
	<path class="st0" d="M20.1,60.7c-0.1,0.1-0.1,0.1-0.2,0.2c-0.2,0.3-0.1,0.7,0.1,0.8l0.2,0.1c0.2,0,0.4-0.1,0.5-0.3l0,0
		C20.5,61.3,20.2,61,20.1,60.7"/>
	<path class="st0" d="M20.4,60.6c-0.1,0-0.2,0-0.3,0.1c0.1,0.3,0.4,0.6,0.6,0.8c0.1-0.3,0.1-0.6-0.1-0.8L20.4,60.6"/>
	<path class="st0" d="M34,42.7c-0.4-1.6,0.4-3.1,1.8-3.6c-0.4-0.3-0.9-0.4-1.5-0.4c-0.8,0-1.5,0.3-2.1,0.9c0.4,0.9,0.4,2-0.1,2.9
		c-0.1,0.1-0.2,0.2-0.2,0.3c0.7,0.5,1.2,1.2,1.6,2c0.3,0.1,0.5,0.1,0.8,0.1c0.4,0,0.8-0.1,1.1-0.2C34.7,44.3,34.2,43.6,34,42.7"/>
	<path class="st0" d="M36.6,22.8c0.2-0.3,0.4-0.6,0.6-0.8c-0.2-1.5-1.4-2.7-2.9-2.7c-1.7,0-3,1.5-3,3.2s1.3,3.1,2.9,3.1
		c0.7,0,1.4-0.3,1.9-0.8C36.1,24.1,36.2,23.4,36.6,22.8"/>
	<path class="st0" d="M24.3,31.7c-1.2,0.3-2,1.2-2.2,2.3c0.5,0.9,1.6,1.6,2.7,1.6c1.5,0,2.7-1,2.9-2.4C27.1,32,25.7,31.4,24.3,31.7"
		/>
	<path class="st0" d="M44.4,29.3c-0.1,0-0.2-0.1-0.3-0.1l-0.2-0.1L43.6,29l-0.1-0.1l-0.2-0.1l-0.1-0.1l-0.3-0.2l-0.1-0.1l-0.2-0.2
		l-0.1-0.1l-0.2-0.2c-0.1-0.1-0.2-0.2-0.3-0.3l-0.1-0.2l-0.1-0.2L41.7,27l-0.1-0.2l0-0.2l-0.1-0.2v-0.1c-0.6,0.7-1.5,1.1-2.3,1.1
		c-0.2,0.5-0.2,1.1-0.1,1.7c0.1,0.5,0.4,0.9,0.7,1.3c0-0.1,0-0.3,0.2-0.4c0.2-0.1,0.4-0.1,0.5,0.1c0.1,0.2,0.1,0.4-0.1,0.5l-0.2,0.1
		c0.7,0.5,1.7,0.8,2.7,0.5c0.9-0.2,1.6-0.8,2-1.6C44.7,29.4,44.5,29.4,44.4,29.3L44.4,29.3z"/>
	<path class="st0" d="M40.3,30.4c0.2-0.1,0.2-0.3,0.1-0.5s-0.3-0.2-0.5-0.1c-0.1,0.1-0.2,0.2-0.2,0.4c0.1,0.1,0.2,0.2,0.3,0.3
		L40.3,30.4"/>
	<path class="st0" d="M49.2,15.7c0,0.2,0,0.3-0.1,0.5v0.1c0,0.1,0,0.2-0.1,0.3v0.1c0,0.1-0.1,0.2-0.1,0.3l0,0c0.4-0.3,0.8-0.6,1.1-1
		c1.3-1.6,1.1-3.8-0.3-4.9c-1.1-0.8-2.6-0.7-3.7,0.1C47.9,11.6,49.4,13.5,49.2,15.7"/>
	<path class="st0" d="M45.7,36.1c-0.2-0.6-0.6-1.1-1.2-1.5l0,0c-0.1-0.1-0.2-0.1-0.3-0.2c-0.8-0.4-1.6-0.5-2.4-0.3
		c0.2,0.2,0.4,0.6,0.3,0.9c-0.1,0.5-0.7,0.9-1.2,0.7c-0.3-0.1-0.6-0.3-0.7-0.6c-0.1,0.1-0.2,0.2-0.2,0.3c-0.2,0.3-0.2,0.6-0.3,0.8
		c-0.3,0.1-0.5,0.3-0.7,0.5c-0.7,0.7-0.9,1.6-0.8,2.5c0.7,0.4,1.3,1.1,1.6,2c0,0.1,0.1,0.3,0.1,0.4c0.5,0.3,1.1,0.4,1.7,0.4
		c0.7,0,1.4-0.3,1.9-0.8c0.3-0.3,0.6-0.7,0.7-1.2c0-0.1,0.1-0.2,0.1-0.3c0.5-0.2,1-0.6,1.3-1.1C46,37.8,46,36.9,45.7,36.1"/>
	<path class="st0" d="M52,44.6c0.2,0.1,0.5,0.1,0.7,0.1c2.5,0.2,4.6-1.4,4.5-3.7c0-0.1,0-0.3,0-0.4v-0.1l-0.1-0.3L57,40l-0.1-0.2
		l-0.1-0.2l0.1-0.1l-0.1-0.2l-0.1-0.1L56.5,39l-0.1-0.1l-0.2-0.3l-0.1-0.1l-0.2-0.2l-0.1-0.1c-0.1-0.1-0.2-0.2-0.3-0.2l0,0l0,0l0,0
		c-0.3-0.2-0.6-0.4-0.9-0.5c-0.6-0.3-1.2-0.4-1.9-0.5l0,0l0.2-0.1c-0.6-0.2-1.2-0.2-1.8-0.3c-1.3,0-2.4,0.2-3.4,0.7
		c0.6,0.2,1.2,0.3,1.9,0.4h0.3l0,0c-0.1,0.1-0.3,0.2-0.4,0.3c-0.3,0.3-0.6,0.6-0.8,1l0,0c-0.1,0.1-0.1,0.2-0.1,0.3v0.1
		c0,0.1-0.1,0.2-0.1,0.3v0.1c0,0.1,0,0.2,0,0.3v0.1v0.2c-1-0.4-2.1-0.6-3.1-0.5c-0.3,0.7-0.5,1.5-0.4,2.4c0.2,3.2,3,6.3,6.5,6.8
		C52.2,47.8,52.5,46.2,52,44.6"/>
	<path class="st0" d="M25.3,8.1c-2.3-0.1-3.9,2.1-3.8,4.6c0.4,2.4,2.2,4.2,4.2,4.2c2.1,0.1,3.8-1.8,3.7-4.4v-0.2
		C29.2,10.1,27.4,8.2,25.3,8.1"/>
	<path class="st0" d="M12.4,30.5h0.1c0.2,0,0.4-0.1,0.6-0.1h0.1c0.2-0.1,0.4-0.1,0.6-0.2h0.1l0.1-0.1c-0.8-0.6-1.8-1-3-1.1
		c-0.9,0-1.7,0.2-2.5,0.5c0.9,0.6,2,1,3.1,1.1C11.9,30.6,12.2,30.6,12.4,30.5"/>
	<path class="st0" d="M15.3,32.6c0-0.7-0.3-1.4-0.8-2c-2.9,0-5.4,2.1-5.5,4.7c0,0.2,0,0.3,0,0.5V36v0.1c0.6,0.2,1.2,0.3,1.9,0.3
		C13.4,36.1,15.2,34.5,15.3,32.6"/>
	<path class="st0" d="M52,26.1l0.1-0.2l0.1-0.2c0-0.1,0.1-0.2,0.1-0.3l0.1-0.2c0-0.1,0.1-0.2,0.1-0.3v-0.2c0-0.2,0-0.3,0.1-0.5
		c0-0.1,0-0.3,0-0.4C51.9,24.5,51.7,25.3,52,26.1"/>
	<path class="st0" d="M15.4,12.9c0.2-0.3,0.3-0.6,0.3-1c-0.7,0.2-1.3,0.6-1.7,1.2C14.5,13.4,15.1,13.3,15.4,12.9"/>
	<path class="st0" d="M20.5,60.1c0.7,0.4,1.6,0.1,2-0.8s0.2-2-0.4-2.4c-0.1-0.1-0.2-0.1-0.3-0.1c-0.9,0.2-1.7,1.2-1.9,2.3
		C20,59.5,20.2,59.8,20.5,60.1"/>
	<path class="st0" d="M11.6,26.5c2.2,0.9,4.6,0.2,5.4-1.6c0.7-1.4,0.1-3.2-1.3-4.3l-0.1,0.1l-0.1,0.1c-0.1,0.2-0.3,0.4-0.4,0.5
		c-0.2,0.4-0.4,0.8-0.5,1.3v0.1c0,0.2-0.1,0.4-0.1,0.6v0.1c0,0.2,0,0.5,0,0.7c-0.2-0.2-0.4-0.3-0.6-0.4l0,0
		c-0.2-0.1-0.4-0.2-0.7-0.3l0,0c-0.2-0.1-0.5-0.2-0.7-0.2h-0.1c-0.3-0.1-0.5-0.1-0.8-0.1c-0.9-0.1-1.8,0.1-2.5,0.5
		C9.1,24.7,10.1,25.9,11.6,26.5"/>
	<path class="st0" d="M39.3,59.5c1.4,0,2.5-0.8,3.1-2c-0.8-1.2-2-2-3.2-1.9c-1.2,0.1-2.2,1.1-2.6,2.5C37.3,59,38.2,59.5,39.3,59.5"
		/>
	<path class="st0" d="M29.6,43.7c-0.8,0-1.5,0.2-2.2,0.6c0-1.1-0.3-2.2-0.9-3.1c0,0.3,0.1,0.5,0.1,0.8c-1.7,0.6-3.1,2-3.9,3.9
		c-0.5-0.1-1-0.1-1.5,0c0.8-0.9,1.3-2.1,1.3-3.3c0-0.2,0-0.3,0-0.5v-0.2c0-0.1,0-0.2,0-0.3v-0.2l-0.1-0.3l-0.1-0.2l-0.1-0.2
		l-0.1-0.2L22,40.3l-0.1-0.2l-0.1-0.2l0.1,0l-0.1-0.2l-0.2-0.1l-0.1-0.1l-0.1-0.1c-1,0.2-2,0.8-2.9,1.6c-2.1,2-2.5,5-1.2,7.2l0,0
		c0.3,0,0.6-0.1,0.9-0.1L18,48.3c-0.1,0.2-0.2,0.4-0.4,0.5l0.2,0.2c1.6,1.7,4.1,2,6.2,0.8l0,0c-0.1,1.8,0.5,3.5,1.6,4.7
		c0.7,0.4,1.5,0.6,2.4,0.5c0.1,0,0.2,0,0.3,0l0,0c-0.2,0.2-0.3,0.4-0.4,0.6v0.2c0.5,0.1,1,0.2,1.5,0.2c1.3,0,2.5-0.6,3.4-1.4
		c-0.1-0.1-0.2-0.2-0.3-0.2l0,0c-0.2-0.1-0.3-0.2-0.5-0.3l0,0c-0.2-0.1-0.3-0.1-0.5-0.2l0,0c0.7-0.5,1.2-1.1,1.7-1.8V52
		c0.1-0.2,0.3-0.4,0.4-0.7v-0.1c0.2-0.5,0.4-1,0.5-1.5v-0.2c0-0.2,0.1-0.4,0.1-0.6v-0.2c0-0.3,0-0.5,0-0.8s0-0.7-0.1-1
		C33.3,44.9,31.6,43.7,29.6,43.7"/>
	<path class="st0" d="M31.9,42.8c0.1-0.1,0.2-0.2,0.2-0.3c0.5-0.9,0.5-2,0.1-2.9c-0.5,0.5-0.8,1.3-0.9,2.2c0,1.4,0.9,2.7,2.2,3.1
		C33.1,44,32.5,43.3,31.9,42.8"/>
	<path class="st0" d="M37.3,41.7c0-1.2-0.7-2.2-1.5-2.7c-1.4,0.5-2.2,2.1-1.8,3.6c0.2,0.9,0.8,1.6,1.5,2
		C36.5,44.2,37.3,43.1,37.3,41.7"/>
	<path class="st0" d="M37.3,22.4c0-0.2,0-0.3,0-0.5c-0.2,0.2-0.5,0.5-0.6,0.8c-0.4,0.6-0.5,1.3-0.4,2C36.8,24.2,37.2,23.4,37.3,22.4
		"/>
	<path class="st0" d="M24.8,35.6c-1.2,0-2.2-0.6-2.7-1.6c-0.1,0.4-0.1,0.9,0,1.4c0.4,1.6,2.1,2.5,3.7,2c1.6-0.5,2.6-2.1,2.1-3.6
		c-0.1-0.2-0.1-0.4-0.2-0.6C27.5,34.5,26.3,35.5,24.8,35.6"/>
	<path class="st0" d="M45.1,27.3c-0.4-1.6-2.2-2.5-3.8-2c-1.1,0.3-1.8,1.1-2.2,2c0.9,0,1.7-0.4,2.3-1.1v0.1l0.1,0.2l0.1,0.2l0.1,0.2
		l0.1,0.2l0.1,0.2l0.1,0.2c0.1,0.1,0.2,0.2,0.3,0.3l0.2,0.2l0.1,0.1l0.2,0.2l0.1,0.1l0.2,0.2l0.1,0.1l0.2,0.1l0.1,0.1l0.3,0.1
		l0.1,0.1c0.1,0,0.2,0.1,0.3,0.1l0,0c0.1,0,0.2,0.1,0.4,0.1C45.1,28.8,45.3,28,45.1,27.3"/>
	<path class="st0" d="M44.8,12.4c-1.2,1.7-1,3.9,0.3,4.9c1,0.8,2.5,0.7,3.7-0.1l0,0c0-0.1,0.1-0.2,0.1-0.3v-0.1
		c0-0.1,0.1-0.2,0.1-0.3v-0.1c0-0.2,0.1-0.3,0.1-0.5c0.2-2.3-1.3-4.2-3.4-4.4C45.4,11.6,45.1,12,44.8,12.4"/>
	<path class="st0" d="M38.1,39.2c0.1,0.6,0.4,1.3,0.9,1.8c0.2,0.2,0.5,0.4,0.8,0.6c0-0.1-0.1-0.3-0.1-0.4
		C39.5,40.3,38.9,39.6,38.1,39.2"/>
	<path class="st0" d="M40.9,35.7c0.5,0.1,1.1-0.2,1.2-0.7c0.1-0.3,0-0.7-0.3-0.9c-0.6,0.2-1.2,0.5-1.6,1
		C40.3,35.4,40.6,35.6,40.9,35.7"/>
	<path class="st0" d="M27.5,24.7c-1.4-0.9-3.3-0.4-4.1,1c-0.7,1.2-0.4,2.7,0.6,3.6c0.1,0.1,0.3,0.3,0.4,0.4l0.2,0.1
		c0.6,0.4,1.3,0.5,2,0.4c0.9-0.1,1.6-0.6,2.1-1.4l0.1-0.2l0,0C29.4,27.3,28.9,25.6,27.5,24.7"/>
	<path class="st0" d="M34,26.2c0-0.2-0.2-0.4-0.4-0.4c-0.2,0-0.4,0.2-0.4,0.4s0.2,0.4,0.4,0.4C33.9,26.6,34,26.4,34,26.2"/>
	<path class="st0" d="M28,36c-0.3,0.2-0.3,0.6-0.1,0.9s0.6,0.3,0.9,0.1c0.3-0.2,0.3-0.6,0.1-0.9C28.6,35.8,28.2,35.8,28,36"/>
	<path class="st0" d="M40.6,31.8c0.2-0.1,0.2-0.3,0.1-0.5c-0.1-0.2-0.3-0.2-0.5-0.1c-0.2,0.1-0.2,0.3-0.1,0.5
		C40.2,31.8,40.4,31.9,40.6,31.8"/>
	<path class="st0" d="M94.7,27v17.8h-3.9v-2.2c-0.8,0.9-1.7,1.6-2.7,2.1s-2.2,0.7-3.5,0.7c-1.6,0-3-0.4-4.3-1.2
		c-1.3-0.8-2.3-1.9-3.1-3.3c-0.8-1.5-1.2-3.1-1.2-5c0-1.8,0.4-3.4,1.2-4.9c0.8-1.5,1.9-2.6,3.3-3.4c1.4-0.8,2.8-1.2,4.4-1.2
		c1,0,2,0.2,2.8,0.5s1.5,0.7,2.1,1.2s1,0.9,1.2,1.2h0.1V27C91.1,27,94.7,27,94.7,27z M90.7,35.8c0-1.7-0.5-3-1.5-4
		c-1-1-2.2-1.5-3.7-1.5c-1,0-1.8,0.2-2.7,0.7c-0.8,0.5-1.4,1.2-1.9,2.1C80.4,34,80.2,35,80.2,36c0,1.6,0.5,2.9,1.5,3.9
		c1,1.1,2.3,1.6,3.8,1.6c1.6,0,2.8-0.5,3.8-1.6C90.2,38.7,90.7,37.4,90.7,35.8"/>
</g>
<g>
	<rect x="98.1" y="21" class="st0" width="4.3" height="23.8"/>
	<path class="st0" d="M105.9,21h4.3v3.9h-4.3V21z M105.9,27h4.3v17.8h-4.3V27z"/>
	<path class="st0" d="M113.8,44.8V27h4v1.6c0.8-0.8,1.5-1.3,2.3-1.6s1.6-0.5,2.6-0.5c1.2,0,2.4,0.3,3.4,0.9c1,0.6,1.9,1.3,2.4,2.1
		c0.4,0.7,0.8,1.5,0.9,2.4c0.1,0.7,0.2,1.8,0.2,3.4v9.6h-4.3v-8.8c0-1.6-0.1-2.8-0.3-3.5c-0.2-0.7-0.6-1.3-1.1-1.6
		c-0.5-0.4-1.2-0.5-1.9-0.5c-0.8,0-1.6,0.2-2.2,0.7c-0.6,0.4-1.1,1-1.3,1.7c-0.2,0.7-0.4,1.9-0.4,3.7v8.5h-4.3V44.8z"/>
	<polygon class="st0" points="133.9,44.8 133.9,30.8 131.8,30.8 131.8,27 133.9,27 133.9,21 138.2,21 138.2,27 140.7,27 140.7,30.8 
		138.2,30.8 138.2,44.8 	"/>
	<path class="st0" d="M160.5,27v17.8h-3.9v-2.2c-0.8,0.9-1.7,1.6-2.7,2.1s-2.2,0.7-3.5,0.7c-1.6,0-3-0.4-4.3-1.2
		c-1.3-0.8-2.3-1.9-3.1-3.3c-0.8-1.5-1.2-3.1-1.2-5c0-1.8,0.4-3.4,1.2-4.9c0.8-1.5,1.9-2.6,3.3-3.4c1.4-0.8,2.9-1.2,4.4-1.2
		c1,0,2,0.2,2.8,0.5s1.5,0.7,2.1,1.2s1,0.9,1.2,1.2h0.1V27C156.9,27,160.5,27,160.5,27z M156.4,35.8c0-1.7-0.5-3-1.5-4
		c-1-1-2.2-1.5-3.7-1.5c-1,0-1.9,0.2-2.7,0.7s-1.4,1.2-1.9,2.1c-0.5,0.9-0.7,1.9-0.7,2.9c0,1.6,0.5,2.9,1.5,3.9
		c1,1.1,2.3,1.6,3.8,1.6c1.6,0,2.8-0.5,3.8-1.6C155.9,38.7,156.4,37.4,156.4,35.8"/>
	<path class="st0" d="M181.9,36.8h-16c0.1,1,0.3,1.8,0.6,2.5c0.3,0.7,0.8,1.4,1.4,1.9c0.6,0.6,1.3,1,2.1,1.4
		c0.8,0.3,1.7,0.5,2.6,0.5c1.4,0,2.7-0.4,3.8-1.1c1.1-0.7,2-1.8,2.5-3h2.4c-0.4,1.1-0.9,2-1.4,2.7c-0.9,1.1-2,2-3.2,2.6
		c-1.3,0.6-2.6,0.9-4.1,0.9c-2.5,0-4.6-0.9-6.4-2.6c-1.8-1.8-2.6-3.9-2.6-6.4c0-1.7,0.4-3.3,1.2-4.7c0.8-1.5,2-2.6,3.4-3.4
		c1.5-0.8,3-1.2,4.5-1.2s3,0.4,4.5,1.2s2.6,2,3.4,3.5c0.8,1.5,1.2,3,1.2,4.6C181.9,36.3,181.9,36.5,181.9,36.8 M179.6,34.8
		c-0.2-0.9-0.4-1.7-0.7-2.3c-0.3-0.6-0.8-1.2-1.3-1.8c-0.6-0.6-1.3-1-2.1-1.4s-1.7-0.6-2.7-0.6c-0.9,0-1.8,0.2-2.6,0.5
		s-1.5,0.8-2.1,1.3s-1.1,1.1-1.4,1.8c-0.3,0.7-0.6,1.5-0.8,2.3h13.7V34.8z"/>
	<path class="st0" d="M183.3,44.8V27.2h2.2v2.2h0.1c1.2-1.8,3.1-2.7,5.6-2.7c1.2,0,2.2,0.2,3.2,0.6c1,0.4,1.8,1,2.5,1.8
		c0.5,0.5,0.9,1.2,1.2,2c0.5,1.2,0.7,2.5,0.7,3.9v9.7h-2.2V35c0-1.4-0.3-2.6-0.8-3.6c-0.5-1-1.2-1.7-2.1-2.1
		c-0.9-0.4-1.8-0.7-2.7-0.7s-1.8,0.2-2.8,0.7c-0.9,0.5-1.6,1.2-2,2.1c-0.4,1-0.7,2.1-0.7,3.5v9.7h-2.2V44.8z"/>
	<path class="st0" d="M218.8,36.8h-16c0.1,1,0.3,1.8,0.6,2.5c0.4,0.7,0.8,1.4,1.4,1.9c0.6,0.6,1.3,1,2.1,1.4
		c0.8,0.3,1.7,0.5,2.6,0.5c1.4,0,2.7-0.4,3.8-1.1c1.1-0.7,2-1.8,2.5-3h2.4c-0.4,1.1-0.9,2-1.4,2.7c-0.9,1.1-2,2-3.2,2.6
		c-1.3,0.6-2.6,0.9-4.1,0.9c-2.5,0-4.6-0.9-6.4-2.6c-1.8-1.8-2.6-3.9-2.6-6.4c0-1.7,0.4-3.3,1.2-4.7c0.8-1.5,2-2.6,3.4-3.4
		c1.5-0.8,3-1.2,4.5-1.2s3,0.4,4.5,1.2s2.6,2,3.4,3.5c0.8,1.5,1.2,3,1.2,4.6C218.8,36.3,218.8,36.5,218.8,36.8 M216.5,34.8
		c-0.2-0.9-0.4-1.7-0.7-2.3c-0.3-0.6-0.8-1.2-1.3-1.8c-0.6-0.6-1.3-1-2.1-1.4s-1.7-0.6-2.7-0.6c-0.9,0-1.8,0.2-2.6,0.5
		s-1.5,0.8-2.1,1.3s-1.1,1.1-1.4,1.8c-0.3,0.7-0.6,1.5-0.8,2.3h13.7V34.8z"/>
	<path class="st0" d="M221.3,44.8V27.2h2.2v2.5h0.1c0.3-0.7,0.7-1.2,1.1-1.6c0.4-0.4,0.9-0.7,1.5-0.9s1.4-0.4,2.4-0.4v2.4
		c-1.2,0.1-2.1,0.4-2.9,0.9c-0.8,0.5-1.3,1.2-1.6,2c-0.3,0.8-0.5,1.7-0.5,2.4v10.3H221.3z"/>
	<path class="st0" d="M245.4,27.2h2.2V42c0,1.4-0.1,2.6-0.2,3.4c-0.2,0.9-0.5,1.7-1,2.5s-1.1,1.4-1.8,2c-0.7,0.6-1.5,1-2.4,1.3
		s-1.9,0.5-3,0.5c-1.3,0-2.5-0.2-3.7-0.6c-1.1-0.4-2.1-1-3-1.8c-0.6-0.6-1.2-1.3-1.6-2c-0.3-0.5-0.6-1.2-0.8-2.1h2.4
		c0.6,1.5,1.5,2.6,2.6,3.3c1.1,0.7,2.5,1.1,3.9,1.1c1.1,0,2-0.2,2.9-0.6c0.8-0.4,1.5-0.9,2-1.5s0.9-1.3,1.2-2.1
		c0.2-0.6,0.3-1.4,0.3-2.4v-1.4h-0.1c-0.5,0.8-1,1.4-1.5,1.8c-0.7,0.6-1.4,1-2.3,1.3c-0.9,0.3-1.9,0.5-2.9,0.5
		c-1.6,0-3.1-0.4-4.6-1.2c-1.5-0.8-2.6-1.9-3.4-3.3c-0.8-1.4-1.2-3-1.2-4.6c0-1.4,0.3-2.6,0.8-3.7c0.5-1.1,1.1-2,1.9-2.8
		c0.8-0.8,1.6-1.4,2.5-1.8c1.3-0.6,2.6-1,4-1c1,0,2,0.2,2.9,0.5s1.7,0.8,2.4,1.3c0.5,0.4,1,1,1.5,1.7h0.1v-3.1H245.4z M231.7,36
		c0,1.2,0.3,2.4,0.9,3.5c0.6,1.1,1.5,2,2.5,2.7c1.1,0.6,2.3,1,3.5,1c1.3,0,2.4-0.3,3.5-1c1.1-0.6,1.9-1.5,2.5-2.7
		c0.6-1.2,0.9-2.4,0.9-3.6s-0.3-2.4-0.9-3.5c-0.6-1.1-1.5-2-2.6-2.7c-1.1-0.6-2.2-0.9-3.5-0.9c-1,0-2,0.2-2.8,0.6
		c-0.8,0.4-1.5,0.9-2.2,1.6c-0.6,0.6-1.1,1.4-1.4,2.3C231.8,34.2,231.7,35.1,231.7,36"/>
	<polygon class="st0" points="254.3,51 257.3,44.2 250.5,27.2 252.9,27.2 258.5,41.2 264.4,27.2 266.8,27.2 256.6,51 	"/>
</g>
</svg>
